<?xml version="1.0" encoding="us-ascii" standalone="no"?><svg xmlns="http://www.w3.org/2000/svg" xmlns:xlink="http://www.w3.org/1999/xlink" contentStyleType="text/css" height="159px" preserveAspectRatio="none" style="width:698px;height:159px;background:#FFFFFF;" version="1.1" viewBox="0 0 698 159" width="698px" zoomAndPan="magnify"><defs/><g><!--class FileOperations--><g id="elem_FileOperations"><rect codeLine="1" fill="#F1F1F1" height="88.8594" id="FileOperations" rx="2.5" ry="2.5" style="stroke:#181818;stroke-width:0.5;" width="365" x="7" y="35.5"/><ellipse cx="135.75" cy="55.6328" fill="#ADD1B2" rx="11" ry="11" style="stroke:#181818;stroke-width:1.0;"/><path d="M138.7188,61.2734 Q138.1406,61.5703 137.5,61.7109 Q136.8594,61.8672 136.1563,61.8672 Q133.6563,61.8672 132.3281,60.2266 Q131.0156,58.5703 131.0156,55.4453 Q131.0156,52.3203 132.3281,50.6641 Q133.6563,49.0078 136.1563,49.0078 Q136.8594,49.0078 137.5,49.1641 Q138.1563,49.3203 138.7188,49.6172 L138.7188,52.3359 Q138.0938,51.7578 137.5,51.4922 Q136.9063,51.2109 136.2813,51.2109 Q134.9375,51.2109 134.25,52.2891 Q133.5625,53.3516 133.5625,55.4453 Q133.5625,57.5391 134.25,58.6172 Q134.9375,59.6797 136.2813,59.6797 Q136.9063,59.6797 137.5,59.4141 Q138.0938,59.1328 138.7188,58.5547 L138.7188,61.2734 Z " fill="#000000"/><text fill="#000000" font-family="sans-serif" font-size="12" font-style="italic" lengthAdjust="spacing" textLength="48" x="181.75" y="51.6387">&#171;static&#187;</text><text fill="#000000" font-family="sans-serif" font-size="14" lengthAdjust="spacing" textLength="99" x="156.25" y="67.4639">FileOperations</text><line style="stroke:#181818;stroke-width:0.5;" x1="8" x2="371" y1="75.7656" y2="75.7656"/><ellipse cx="18" cy="89.4141" fill="none" rx="3" ry="3" style="stroke:#038048;stroke-width:1.0;"/><text fill="#000000" font-family="sans-serif" font-size="14" lengthAdjust="spacing" text-decoration="underline" textLength="339" x="27" y="92.7607">BestandStudenten : string = "StudentEnPunt.txt"</text><line style="stroke:#181818;stroke-width:0.5;" x1="8" x2="371" y1="100.0625" y2="100.0625"/><ellipse cx="18" cy="113.7109" fill="#84BE84" rx="3" ry="3" style="stroke:#038048;stroke-width:1.0;"/><text fill="#000000" font-family="sans-serif" font-size="14" lengthAdjust="spacing" text-decoration="underline" textLength="231" x="27" y="117.0576">LeesStudenten() : List&lt;Student&gt;</text></g><!--class Student--><g id="elem_Student"><rect codeLine="1" fill="#F1F1F1" height="145.7813" id="Student" rx="2.5" ry="2.5" style="stroke:#181818;stroke-width:0.5;" width="284" x="407.5" y="7"/><ellipse cx="517.75" cy="23" fill="#ADD1B2" rx="11" ry="11" style="stroke:#181818;stroke-width:1.0;"/><path d="M520.7188,28.6406 Q520.1406,28.9375 519.5,29.0781 Q518.8594,29.2344 518.1563,29.2344 Q515.6563,29.2344 514.3281,27.5938 Q513.0156,25.9375 513.0156,22.8125 Q513.0156,19.6875 514.3281,18.0313 Q515.6563,16.375 518.1563,16.375 Q518.8594,16.375 519.5,16.5313 Q520.1563,16.6875 520.7188,16.9844 L520.7188,19.7031 Q520.0938,19.125 519.5,18.8594 Q518.9063,18.5781 518.2813,18.5781 Q516.9375,18.5781 516.25,19.6563 Q515.5625,20.7188 515.5625,22.8125 Q515.5625,24.9063 516.25,25.9844 Q516.9375,27.0469 518.2813,27.0469 Q518.9063,27.0469 519.5,26.7813 Q520.0938,26.5 520.7188,25.9219 L520.7188,28.6406 Z " fill="#000000"/><text fill="#000000" font-family="sans-serif" font-size="14" lengthAdjust="spacing" textLength="55" x="538.25" y="27.8467">Student</text><line style="stroke:#181818;stroke-width:0.5;" x1="408.5" x2="690.5" y1="39" y2="39"/><ellipse cx="418.5" cy="52.6484" fill="none" rx="3" ry="3" style="stroke:#038048;stroke-width:1.0;"/><text fill="#000000" font-family="sans-serif" font-size="14" lengthAdjust="spacing" textLength="180" x="427.5" y="55.9951">Naam : string &#171;get&#187; &#171;set&#187;</text><ellipse cx="418.5" cy="68.9453" fill="none" rx="3" ry="3" style="stroke:#038048;stroke-width:1.0;"/><text fill="#000000" font-family="sans-serif" font-size="14" lengthAdjust="spacing" textLength="200" x="427.5" y="72.292">Punten : double &#171;get&#187; &#171;set&#187;</text><ellipse cx="418.5" cy="85.2422" fill="none" rx="3" ry="3" style="stroke:#038048;stroke-width:1.0;"/><text fill="#000000" font-family="sans-serif" font-size="14" lengthAdjust="spacing" textLength="162" x="427.5" y="88.5889">Resultaat : string &#171;get&#187;</text><line style="stroke:#181818;stroke-width:0.5;" x1="408.5" x2="690.5" y1="95.8906" y2="95.8906"/><ellipse cx="418.5" cy="109.5391" fill="#84BE84" rx="3" ry="3" style="stroke:#038048;stroke-width:1.0;"/><text fill="#000000" font-family="sans-serif" font-size="14" lengthAdjust="spacing" textLength="258" x="427.5" y="112.8857">Student(naam:string, punten:double)</text><ellipse cx="418.5" cy="125.8359" fill="#84BE84" rx="3" ry="3" style="stroke:#038048;stroke-width:1.0;"/><text fill="#000000" font-family="sans-serif" font-size="14" lengthAdjust="spacing" textLength="65" x="427.5" y="129.1826">Student()</text><ellipse cx="418.5" cy="142.1328" fill="#84BE84" rx="3" ry="3" style="stroke:#038048;stroke-width:1.0;"/><text fill="#000000" font-family="sans-serif" font-size="14" lengthAdjust="spacing" textLength="198" x="427.5" y="145.4795">&#171;override&#187; ToString() : string</text></g><!--SRC=[KypCIyufJKbLSClCIVKlI2rABCdCpolMAoZDpU5IX4a6bm39l1AmA000]--></g></svg>