<?xml version="1.0" encoding="us-ascii" standalone="no"?><svg xmlns="http://www.w3.org/2000/svg" xmlns:xlink="http://www.w3.org/1999/xlink" contentStyleType="text/css" height="166px" preserveAspectRatio="none" style="width:305px;height:166px;background:#FFFFFF;" version="1.1" viewBox="0 0 305 166" width="305px" zoomAndPan="magnify"><defs/><g><!--class Student--><g id="elem_Student"><rect codeLine="1" fill="#F1F1F1" height="145.7813" id="Student" rx="2.5" ry="2.5" style="stroke:#181818;stroke-width:0.5;" width="284" x="7" y="7"/><ellipse cx="117.25" cy="23" fill="#ADD1B2" rx="11" ry="11" style="stroke:#181818;stroke-width:1.0;"/><path d="M120.2188,28.6406 Q119.6406,28.9375 119,29.0781 Q118.3594,29.2344 117.6563,29.2344 Q115.1563,29.2344 113.8281,27.5938 Q112.5156,25.9375 112.5156,22.8125 Q112.5156,19.6875 113.8281,18.0313 Q115.1563,16.375 117.6563,16.375 Q118.3594,16.375 119,16.5313 Q119.6563,16.6875 120.2188,16.9844 L120.2188,19.7031 Q119.5938,19.125 119,18.8594 Q118.4063,18.5781 117.7813,18.5781 Q116.4375,18.5781 115.75,19.6563 Q115.0625,20.7188 115.0625,22.8125 Q115.0625,24.9063 115.75,25.9844 Q116.4375,27.0469 117.7813,27.0469 Q118.4063,27.0469 119,26.7813 Q119.5938,26.5 120.2188,25.9219 L120.2188,28.6406 Z " fill="#000000"/><text fill="#000000" font-family="sans-serif" font-size="14" lengthAdjust="spacing" textLength="55" x="137.75" y="27.8467">Student</text><line style="stroke:#181818;stroke-width:0.5;" x1="8" x2="290" y1="39" y2="39"/><ellipse cx="18" cy="52.6484" fill="none" rx="3" ry="3" style="stroke:#038048;stroke-width:1.0;"/><text fill="#000000" font-family="sans-serif" font-size="14" lengthAdjust="spacing" textLength="180" x="27" y="55.9951">Naam : string &#171;get&#187; &#171;set&#187;</text><ellipse cx="18" cy="68.9453" fill="none" rx="3" ry="3" style="stroke:#038048;stroke-width:1.0;"/><text fill="#000000" font-family="sans-serif" font-size="14" lengthAdjust="spacing" textLength="200" x="27" y="72.292">Punten : double &#171;get&#187; &#171;set&#187;</text><ellipse cx="18" cy="85.2422" fill="none" rx="3" ry="3" style="stroke:#038048;stroke-width:1.0;"/><text fill="#000000" font-family="sans-serif" font-size="14" lengthAdjust="spacing" textLength="162" x="27" y="88.5889">Resultaat : string &#171;get&#187;</text><line style="stroke:#181818;stroke-width:0.5;" x1="8" x2="290" y1="95.8906" y2="95.8906"/><ellipse cx="18" cy="109.5391" fill="#84BE84" rx="3" ry="3" style="stroke:#038048;stroke-width:1.0;"/><text fill="#000000" font-family="sans-serif" font-size="14" lengthAdjust="spacing" textLength="258" x="27" y="112.8857">Student(naam:string, punten:double)</text><ellipse cx="18" cy="125.8359" fill="#84BE84" rx="3" ry="3" style="stroke:#038048;stroke-width:1.0;"/><text fill="#000000" font-family="sans-serif" font-size="14" lengthAdjust="spacing" textLength="65" x="27" y="129.1826">Student()</text><ellipse cx="18" cy="142.1328" fill="#84BE84" rx="3" ry="3" style="stroke:#038048;stroke-width:1.0;"/><text fill="#000000" font-family="sans-serif" font-size="14" lengthAdjust="spacing" textLength="198" x="27" y="145.4795">&#171;override&#187; ToString() : string</text></g><!--SRC=[Iyv9B2vM22ufJKdDAr6evb800cq5lyJ4N0KhXUAIeioyT0KRc_JK4Zix85qCeg5g0ahpIbBpWAfIyakJSb9ng8AQh947DD4AOfwEGW5OgnL4eoQQIXW_ABMuDASaCR44mo5G1JOs-MMfHKMPAQb0MqFoWy5gD3JXohbg0G00]--></g></svg>